<svg width="68" height="30" viewBox="0 0 68 30" fill="none" xmlns="http://www.w3.org/2000/svg">
<rect width="68" height="30" rx="15" fill="#5922CE"/>
<circle cx="53" cy="15" r="15" fill="#D9D9D9"/>
<g clip-path="url(#clip0_2_13)">
<path d="M55 6C55.132 6 55.263 6 55.393 6C54.1083 7.1937 53.2826 8.79984 53.0593 10.5392C52.836 12.2786 53.2293 14.0412 54.1707 15.5207C55.1122 17.0002 56.5424 18.103 58.2126 18.6375C59.8828 19.1719 61.6875 19.1041 63.313 18.446C62.6877 19.9505 61.6658 21.257 60.3562 22.2263C59.0466 23.1955 57.4984 23.791 55.8769 23.9494C54.2554 24.1077 52.6213 23.8229 51.1489 23.1254C49.6765 22.4278 48.4211 21.3437 47.5166 19.9886C46.6121 18.6335 46.0923 17.0583 46.0129 15.431C45.9334 13.8037 46.2972 12.1853 47.0654 10.7485C47.8336 9.31173 48.9774 8.11042 50.3748 7.27273C51.7722 6.43504 53.3707 5.99239 55 5.992V6Z" stroke="black" stroke-width="2" stroke-linecap="round" stroke-linejoin="round"/>
</g>
<defs>
<clipPath id="clip0_2_13">
<rect width="24" height="24" fill="white" transform="translate(43 3)"/>
</clipPath>
</defs>
</svg>
